<svg xmlns="http://www.w3.org/2000/svg" xmlns:xlink="http://www.w3.org/1999/xlink" width="200" zoomAndPan="magnify" viewBox="0 0 150 149.999998" height="200" preserveAspectRatio="xMidYMid meet" version="1.0"><defs><g/><clipPath id="5227156e7a"><path d="M 0 0 L 120 0 L 120 68 L 0 68 Z M 0 0 " clip-rule="nonzero"/></clipPath><clipPath id="8c136b55ac"><path d="M 127.257812 -106.023438 L -86.101562 74.910156 L -97.257812 61.753906 L 116.101562 -119.179688 Z M 127.257812 -106.023438 " clip-rule="nonzero"/></clipPath><clipPath id="64201e6a84"><path d="M 127.257812 -106.023438 L -86.101562 74.910156 L -97.257812 61.753906 L 116.101562 -119.179688 Z M 127.257812 -106.023438 " clip-rule="nonzero"/></clipPath><clipPath id="1432413069"><path d="M 0 0 L 150 0 L 150 142 L 0 142 Z M 0 0 " clip-rule="nonzero"/></clipPath><clipPath id="c0a9693fb7"><path d="M 185.511719 -8.035156 L -34.855469 142.71875 L -44.59375 128.480469 L 175.773438 -22.273438 Z M 185.511719 -8.035156 " clip-rule="nonzero"/></clipPath><clipPath id="3aaee6117b"><path d="M 185.511719 -8.035156 L -43.519531 148.648438 L -53.261719 134.410156 L 175.773438 -22.273438 Z M 185.511719 -8.035156 " clip-rule="nonzero"/></clipPath><clipPath id="2bd4d4a8bd"><path d="M 45 80 L 46 80 L 46 81 L 45 81 Z M 45 80 " clip-rule="nonzero"/></clipPath><clipPath id="a8da699f24"><path d="M 185.511719 -8.035156 L -34.855469 142.71875 L -44.59375 128.480469 L 175.773438 -22.273438 Z M 185.511719 -8.035156 " clip-rule="nonzero"/></clipPath><clipPath id="9e79e3f77c"><path d="M 185.511719 -8.035156 L -43.519531 148.648438 L -53.261719 134.410156 L 175.773438 -22.273438 Z M 185.511719 -8.035156 " clip-rule="nonzero"/></clipPath></defs><rect x="-15" width="180" fill="#ffffff" y="-15" height="179.999997" fill-opacity="1"/><rect x="-15" width="180" fill="#ffffff" y="-15" height="179.999997" fill-opacity="1"/><rect x="-15" width="180" fill="#ffffff" y="-15" height="179.999997" fill-opacity="1"/><g clip-path="url(#5227156e7a)"><g clip-path="url(#8c136b55ac)"><g clip-path="url(#64201e6a84)"><path fill="#ffffff" d="M 27.242188 -21.382812 C 33.4375 -26.761719 38.609375 -31.378906 42.414062 -34.9375 C 43.492188 -35.941406 45.382812 -37.707031 46.625 -38.867188 C 49.851562 -41.867188 61.5625 -53.175781 66.105469 -57.683594 C 66.789062 -58.351562 68.6875 -60.207031 70.335938 -61.800781 C 71.972656 -63.386719 73.511719 -64.882812 73.742188 -65.132812 C 73.96875 -65.378906 76.644531 -68.035156 79.683594 -71.054688 C 82.730469 -74.0625 86.859375 -78.167969 88.875 -80.175781 C 90.898438 -82.175781 94.648438 -85.886719 97.238281 -88.417969 C 105.390625 -96.410156 108.871094 -99.960938 111.675781 -103.152344 C 112.648438 -104.261719 113.25 -105.039062 113.277344 -105.234375 C 113.300781 -105.414062 113.722656 -105.96875 114.347656 -106.660156 C 116.898438 -109.421875 117.882812 -110.683594 118.902344 -112.503906 C 119.558594 -113.675781 119.585938 -113.789062 119.460938 -114.410156 C 119.351562 -114.933594 119.269531 -115.09375 119.066406 -115.167969 C 118.871094 -115.230469 118.808594 -115.304688 118.84375 -115.492188 C 118.898438 -115.820312 118.476562 -116.3125 118.144531 -116.316406 C 117.914062 -116.316406 117.890625 -116.347656 117.933594 -116.5625 C 118.011719 -116.925781 117.726562 -117.074219 116.984375 -117.101562 C 116.613281 -117.105469 116.277344 -117.191406 116.25 -117.289062 C 116.136719 -117.585938 115.824219 -117.707031 115.40625 -117.597656 C 114.300781 -117.351562 109.957031 -113.949219 106.902344 -110.953125 C 105.746094 -109.8125 103.652344 -107.808594 102.273438 -106.480469 C 100.882812 -105.160156 99.511719 -103.839844 99.222656 -103.558594 C 98.945312 -103.269531 98.160156 -102.515625 97.484375 -101.886719 C 96.804688 -101.261719 95.980469 -100.472656 95.632812 -100.140625 C 94.984375 -99.519531 93.511719 -98.148438 91.46875 -96.257812 C 90.8125 -95.664062 89.660156 -94.601562 88.910156 -93.894531 C 87.566406 -92.644531 87.046875 -92.328125 88.050781 -93.375 C 90.03125 -95.410156 89.890625 -95.34375 87.066406 -92.859375 C 80.632812 -87.226562 69.105469 -76.390625 62.21875 -69.507812 C 60.648438 -67.945312 58.460938 -65.773438 57.363281 -64.683594 C 56.25 -63.597656 54.121094 -61.453125 52.609375 -59.945312 C 51.101562 -58.417969 48.640625 -55.976562 47.136719 -54.507812 C 45.628906 -53.035156 42.820312 -50.246094 40.886719 -48.324219 C 37.476562 -44.9375 33.628906 -41.179688 28.933594 -36.683594 C 27.6875 -35.503906 26.664062 -34.476562 26.660156 -34.417969 C 26.660156 -34.3125 29.523438 -36.652344 30.140625 -37.246094 C 30.304688 -37.421875 30.496094 -37.511719 30.539062 -37.460938 C 30.582031 -37.410156 30.527344 -37.308594 30.425781 -37.222656 C 30.253906 -37.09375 28.371094 -35.320312 26.894531 -33.894531 C 26.546875 -33.5625 25.507812 -32.59375 24.585938 -31.757812 C 23.652344 -30.914062 22.453125 -29.824219 21.917969 -29.316406 C 21.371094 -28.820312 19.875 -27.460938 18.585938 -26.316406 C 17.292969 -25.167969 15.980469 -23.964844 15.660156 -23.660156 C 15.34375 -23.351562 13.660156 -21.839844 11.921875 -20.3125 C 10.183594 -18.78125 8.195312 -17.027344 7.519531 -16.402344 C 6.839844 -15.773438 4.140625 -13.410156 1.535156 -11.148438 C -1.082031 -8.875 -3.765625 -6.515625 -4.449219 -5.894531 C -10.675781 -0.246094 -56.171875 38.441406 -62.753906 43.6875 C -65.09375 45.546875 -68.464844 48.230469 -70.253906 49.640625 C -74.175781 52.773438 -78.949219 56.679688 -78.683594 56.558594 C -78.574219 56.5 -77.699219 55.902344 -76.75 55.21875 L -75.003906 53.96875 L -76.515625 55.289062 C -77.34375 56.027344 -78.078125 56.734375 -78.144531 56.882812 C -78.25 57.09375 -78.210938 57.097656 -77.972656 56.839844 C -77.804688 56.664062 -77.632812 56.554688 -77.589844 56.605469 C -77.554688 56.648438 -77.808594 56.929688 -78.164062 57.234375 C -78.5625 57.570312 -78.78125 57.683594 -78.730469 57.554688 C -78.703125 57.425781 -78.824219 57.511719 -79.074219 57.773438 C -79.699219 58.445312 -87.652344 64.042969 -90.832031 66.046875 C -91.28125 66.34375 -91.5 66.542969 -91.542969 66.738281 C -91.582031 66.898438 -91.769531 67.109375 -92 67.253906 C -92.261719 67.402344 -92.367188 67.527344 -92.296875 67.609375 C -92.242188 67.671875 -92.097656 67.636719 -91.964844 67.523438 C -91.832031 67.410156 -91.578125 67.316406 -91.394531 67.304688 C -91.078125 67.285156 -91.070312 67.292969 -91.253906 67.554688 C -91.480469 67.90625 -91.355469 68.011719 -90.957031 67.800781 C -86.761719 65.550781 -70.660156 54.265625 -53.117188 41.296875 C -51.285156 39.9375 -48.578125 37.960938 -47.101562 36.90625 C -45.628906 35.851562 -43.378906 34.222656 -42.105469 33.285156 C -40.820312 32.355469 -38.910156 30.964844 -37.863281 30.21875 C -36.8125 29.46875 -34.742188 27.960938 -33.261719 26.847656 C -31.796875 25.746094 -29.105469 23.746094 -27.292969 22.40625 C -18.890625 16.179688 -15.539062 13.570312 -5.726562 5.636719 C -4.035156 4.273438 -2.523438 3.0625 -2.359375 2.941406 C -2.1875 2.8125 -1.179688 1.976562 -0.0976562 1.078125 C 1.082031 0.0898438 1.871094 -0.488281 1.875 -0.402344 C 1.894531 -0.316406 1.992188 -0.324219 2.074219 -0.414062 C 2.871094 -1.109375 4.160156 -2.09375 4.820312 -2.511719 C 5.824219 -3.132812 18.695312 -13.976562 27.242188 -21.382812 Z M 35.535156 -35.664062 C 35.539062 -35.742188 36.179688 -36.390625 36.972656 -37.113281 C 37.753906 -37.847656 38.554688 -38.617188 38.761719 -38.828125 C 38.96875 -39.039062 39.753906 -39.792969 40.511719 -40.488281 C 41.273438 -41.1875 42.097656 -41.972656 42.363281 -42.238281 C 42.613281 -42.5 43.273438 -43.132812 43.808594 -43.636719 C 44.34375 -44.144531 44.929688 -44.714844 45.097656 -44.910156 C 45.273438 -45.09375 45.894531 -45.707031 46.492188 -46.265625 C 47.070312 -46.828125 47.675781 -47.414062 47.832031 -47.582031 C 47.976562 -47.742188 48.523438 -48.273438 49.019531 -48.765625 C 49.90625 -49.625 50.414062 -50.125 51.703125 -51.394531 C 52.054688 -51.726562 52.714844 -52.375 53.199219 -52.839844 C 54.414062 -54.011719 55.433594 -55 55.933594 -55.511719 C 56.417969 -56.011719 58.371094 -57.953125 59.550781 -59.109375 C 60.003906 -59.546875 60.550781 -60.097656 60.789062 -60.335938 C 61.027344 -60.574219 61.574219 -61.125 62.027344 -61.5625 C 62.480469 -62.003906 63.089844 -62.589844 63.371094 -62.878906 C 63.65625 -63.160156 64.238281 -63.738281 64.660156 -64.148438 C 65.722656 -65.191406 66.394531 -65.851562 68.480469 -67.921875 C 70.84375 -70.261719 74.144531 -73.46875 75.492188 -74.753906 C 76.078125 -75.300781 76.914062 -76.097656 77.34375 -76.5 C 77.769531 -76.910156 78.417969 -77.53125 78.789062 -77.902344 C 80.589844 -79.625 82.203125 -81.09375 82.207031 -81.007812 C 82.195312 -80.894531 81.5 -80.164062 80.253906 -78.964844 C 79.800781 -78.527344 79.285156 -78.019531 79.117188 -77.824219 C 78.941406 -77.640625 78.433594 -77.121094 77.980469 -76.683594 C 76.441406 -75.183594 75.914062 -74.667969 75.398438 -74.140625 C 75.117188 -73.851562 73.015625 -71.800781 70.753906 -69.582031 C 68.476562 -67.367188 65.789062 -64.71875 64.769531 -63.710938 C 59.5 -58.503906 52.742188 -51.886719 47.175781 -46.492188 C 46.796875 -46.136719 46.042969 -45.410156 45.476562 -44.875 C 44.910156 -44.34375 43.699219 -43.207031 42.800781 -42.34375 C 40.691406 -40.339844 39.550781 -39.265625 37.773438 -37.617188 C 36.980469 -36.894531 36.34375 -36.28125 36.34375 -36.261719 C 36.324219 -36.160156 35.515625 -35.5625 35.535156 -35.664062 Z M -16.132812 7.636719 C -22.464844 12.8125 -24.550781 14.507812 -32.207031 20.648438 C -41.128906 27.789062 -44.429688 30.375 -45.824219 31.277344 C -46.296875 31.589844 -46.355469 31.601562 -46.203125 31.347656 C -46.09375 31.1875 -46.070312 31.113281 -46.148438 31.164062 C -46.21875 31.203125 -46.324219 31.203125 -46.367188 31.152344 C -46.472656 31.03125 -46.675781 31.203125 -12.207031 1.921875 C 1.957031 -10.109375 14.292969 -20.640625 15.214844 -21.496094 C 16.582031 -22.742188 24.894531 -29.878906 25.65625 -30.472656 C 26.050781 -30.773438 25.847656 -30.371094 25.375 -29.933594 C 23.617188 -28.285156 22.414062 -27.175781 20.734375 -25.644531 C 19.667969 -24.6875 18.660156 -23.761719 18.515625 -23.605469 C 18.359375 -23.4375 17.867188 -22.984375 17.40625 -22.59375 C 16.710938 -21.984375 16.605469 -21.863281 16.761719 -21.761719 C 16.890625 -21.695312 16.890625 -21.609375 16.78125 -21.511719 C 16.667969 -21.417969 16.582031 -21.433594 16.535156 -21.574219 C 16.472656 -21.730469 16.355469 -21.683594 15.917969 -21.3125 C 15.4375 -20.90625 15.382812 -20.804688 15.496094 -20.546875 L 15.613281 -20.261719 L 15.035156 -20.652344 L 15.175781 -20.363281 C 15.289062 -20.125 15.253906 -20.023438 14.898438 -19.757812 C 14.472656 -19.414062 11.140625 -16.429688 9.597656 -14.980469 C 9.085938 -14.511719 7.128906 -12.761719 5.257812 -11.105469 C 3.382812 -9.445312 1.671875 -7.921875 1.457031 -7.722656 C 1.242188 -7.523438 0.00390625 -6.4375 -1.292969 -5.320312 C -2.664062 -4.160156 -3.617188 -3.257812 -3.574219 -3.207031 C -3.523438 -3.148438 -1.34375 -4.921875 1.847656 -7.613281 C 4.777344 -10.097656 7.222656 -12.117188 7.269531 -12.121094 C 7.429688 -12.097656 -10.578125 3.101562 -16.132812 7.636719 Z M 15.980469 -20.90625 C 15.953125 -20.9375 15.949219 -21.023438 15.984375 -21.105469 C 16.011719 -21.179688 16.078125 -21.203125 16.121094 -21.148438 C 16.175781 -21.089844 16.167969 -20.992188 16.117188 -20.949219 C 16.054688 -20.898438 15.996094 -20.882812 15.980469 -20.90625 Z M 40.664062 -42.421875 C 40.71875 -42.503906 40.859375 -42.625 40.96875 -42.679688 C 41.097656 -42.738281 41.054688 -42.664062 40.890625 -42.527344 C 40.71875 -42.378906 40.628906 -42.339844 40.664062 -42.421875 Z M 42.585938 -44.210938 C 42.589844 -44.265625 42.671875 -44.355469 42.769531 -44.386719 C 42.878906 -44.421875 42.875 -44.367188 42.761719 -44.273438 C 42.660156 -44.167969 42.570312 -44.144531 42.585938 -44.210938 Z M -46.777344 31.5 C -46.820312 31.449219 -46.820312 31.363281 -46.769531 31.320312 C -46.710938 31.265625 -46.59375 31.257812 -46.519531 31.28125 C -46.4375 31.320312 -46.441406 31.394531 -46.523438 31.464844 C -46.617188 31.542969 -46.722656 31.5625 -46.777344 31.5 Z M 43.601562 -45.265625 C 43.6875 -45.375 43.851562 -45.511719 43.960938 -45.570312 C 44.085938 -45.625 44.023438 -45.535156 43.828125 -45.371094 C 43.636719 -45.207031 43.535156 -45.160156 43.601562 -45.265625 Z M 44.996094 -46.625 C 45.109375 -46.757812 45.335938 -46.949219 45.503906 -47.058594 C 45.6875 -47.175781 45.589844 -47.058594 45.316406 -46.824219 C 45.03125 -46.582031 44.890625 -46.5 44.996094 -46.625 Z M 25.996094 -30.796875 C 26.015625 -31.042969 26.234375 -31.050781 26.265625 -30.8125 C 26.285156 -30.722656 26.222656 -30.632812 26.132812 -30.613281 C 26.039062 -30.601562 25.984375 -30.664062 25.996094 -30.796875 Z M 46.4375 -48.027344 C 46.554688 -48.160156 46.777344 -48.347656 46.949219 -48.457031 C 47.128906 -48.578125 47.035156 -48.460938 46.757812 -48.226562 C 46.472656 -47.984375 46.332031 -47.902344 46.4375 -48.027344 Z M -63.878906 45.527344 C -63.828125 45.445312 -63.703125 45.34375 -63.625 45.3125 C -63.527344 45.28125 -63.5625 45.34375 -63.703125 45.464844 C -63.847656 45.585938 -63.914062 45.609375 -63.878906 45.527344 Z M -73.574219 53.75 C -73.519531 53.667969 -73.398438 53.5625 -73.320312 53.53125 C -73.222656 53.503906 -73.257812 53.566406 -73.398438 53.6875 C -73.542969 53.808594 -73.609375 53.832031 -73.574219 53.75 Z M 47.933594 -49.46875 C 48.078125 -49.628906 48.324219 -49.835938 48.492188 -49.945312 C 48.675781 -50.0625 48.558594 -49.929688 48.253906 -49.671875 C 47.945312 -49.410156 47.796875 -49.320312 47.933594 -49.46875 Z M -66.417969 47.5 C -66.25 47.324219 -65.945312 47.066406 -65.753906 46.9375 C -65.550781 46.804688 -65.675781 46.945312 -66.046875 47.257812 C -66.414062 47.566406 -66.574219 47.667969 -66.417969 47.5 Z M -75.398438 55.117188 C -75.28125 54.984375 -75.058594 54.792969 -74.886719 54.683594 C -74.707031 54.566406 -74.800781 54.683594 -75.078125 54.914062 C -75.363281 55.15625 -75.503906 55.242188 -75.398438 55.117188 Z M 49.632812 -51.085938 C 49.683594 -51.167969 49.808594 -51.273438 49.886719 -51.304688 C 49.984375 -51.332031 49.949219 -51.269531 49.808594 -51.148438 C 49.664062 -51.027344 49.597656 -51.003906 49.632812 -51.085938 Z M 49.191406 -50.695312 C 49.195312 -50.753906 49.277344 -50.839844 49.375 -50.871094 C 49.484375 -50.910156 49.480469 -50.851562 49.367188 -50.757812 C 49.265625 -50.652344 49.175781 -50.628906 49.191406 -50.695312 Z M -68.390625 49 C -68.257812 48.847656 -67.980469 48.613281 -67.78125 48.480469 C -67.578125 48.34375 -67.683594 48.46875 -68.019531 48.753906 C -68.355469 49.039062 -68.527344 49.148438 -68.390625 49 Z M -76.914062 56.226562 C -76.796875 56.09375 -76.574219 55.902344 -76.402344 55.792969 C -76.222656 55.675781 -76.316406 55.789062 -76.59375 56.023438 C -76.878906 56.265625 -77.019531 56.351562 -76.914062 56.226562 Z M -70.367188 50.496094 C -70.25 50.363281 -70.027344 50.175781 -69.855469 50.066406 C -69.675781 49.945312 -69.769531 50.0625 -70.046875 50.296875 C -70.332031 50.539062 -70.472656 50.621094 -70.367188 50.496094 Z M -72.085938 51.777344 C -71.972656 51.644531 -71.769531 51.472656 -71.628906 51.390625 C -71.476562 51.296875 -71.5625 51.40625 -71.816406 51.621094 C -72.074219 51.835938 -72.191406 51.902344 -72.085938 51.777344 Z M -74.011719 53.234375 C -73.894531 53.101562 -73.671875 52.910156 -73.5 52.800781 C -73.320312 52.683594 -73.414062 52.800781 -73.691406 53.03125 C -73.976562 53.273438 -74.117188 53.359375 -74.011719 53.234375 Z M 82.585938 -81.386719 C 82.535156 -81.449219 82.742188 -81.679688 83.046875 -81.917969 L 83.597656 -82.367188 L 83.199219 -81.90625 C 82.980469 -81.648438 82.78125 -81.410156 82.726562 -81.363281 C 82.695312 -81.320312 82.640625 -81.324219 82.585938 -81.386719 Z M 82.332031 -81.066406 C 82.308594 -81.097656 82.304688 -81.183594 82.339844 -81.265625 C 82.363281 -81.339844 82.433594 -81.363281 82.476562 -81.308594 C 82.527344 -81.25 82.519531 -81.152344 82.46875 -81.109375 C 82.410156 -81.058594 82.351562 -81.042969 82.332031 -81.066406 Z M 83.675781 -82.378906 C 83.648438 -82.410156 83.644531 -82.496094 83.679688 -82.578125 C 83.707031 -82.652344 83.773438 -82.675781 83.816406 -82.625 C 83.871094 -82.5625 83.863281 -82.46875 83.8125 -82.425781 C 83.75 -82.375 83.691406 -82.359375 83.675781 -82.378906 Z M 30.71875 -37.703125 C 30.804688 -37.808594 30.96875 -37.949219 31.074219 -38.003906 C 31.203125 -38.058594 31.140625 -37.96875 30.945312 -37.804688 C 30.753906 -37.640625 30.652344 -37.59375 30.71875 -37.703125 Z M 94.566406 -94.835938 C 94.574219 -94.894531 94.65625 -94.980469 94.753906 -95.011719 C 94.859375 -95.050781 94.855469 -94.992188 94.746094 -94.898438 C 94.640625 -94.792969 94.554688 -94.769531 94.566406 -94.835938 Z M 94.160156 -94.488281 C 94.164062 -94.546875 94.246094 -94.636719 94.34375 -94.664062 C 94.453125 -94.703125 94.449219 -94.644531 94.335938 -94.550781 C 94.234375 -94.445312 94.144531 -94.425781 94.160156 -94.488281 Z M 95.59375 -95.902344 C 95.78125 -96.09375 96.109375 -96.371094 96.308594 -96.507812 C 96.5 -96.632812 96.34375 -96.464844 95.957031 -96.136719 C 95.558594 -95.800781 95.398438 -95.699219 95.59375 -95.902344 Z M 98.359375 -98.582031 C 102.398438 -102.589844 106.75 -107.199219 106.761719 -107.476562 C 106.757812 -107.542969 106.238281 -107.101562 105.597656 -106.488281 C 104.953125 -105.886719 104.015625 -104.984375 103.5 -104.515625 C 102.996094 -104.035156 102.335938 -103.386719 102.035156 -103.078125 C 101.601562 -102.640625 101.472656 -102.5625 101.367188 -102.6875 C 101.296875 -102.769531 101.28125 -102.914062 101.3125 -102.996094 C 101.402344 -103.160156 100.457031 -102.289062 98.984375 -100.84375 C 98.570312 -100.421875 98.222656 -100.128906 98.226562 -100.183594 C 98.234375 -100.296875 102.578125 -104.671875 103.574219 -105.566406 C 103.839844 -105.8125 104.222656 -106.207031 104.40625 -106.449219 C 104.59375 -106.679688 105.15625 -107.28125 105.660156 -107.761719 C 106.722656 -108.804688 106.796875 -108.882812 107.808594 -109.988281 C 108.234375 -110.457031 109.101562 -111.335938 109.75 -111.9375 C 110.398438 -112.539062 111.644531 -113.71875 112.519531 -114.570312 C 113.921875 -115.953125 114.199219 -116.167969 115.050781 -116.609375 C 115.765625 -116.988281 116.089844 -117.082031 116.359375 -116.992188 C 117.085938 -116.777344 116.839844 -116.425781 114.515625 -114.386719 C 113.574219 -113.554688 111.90625 -111.941406 110.796875 -110.808594 C 109.085938 -109.058594 103.113281 -103.089844 99.210938 -99.230469 C 98.609375 -98.636719 97.816406 -97.894531 97.449219 -97.582031 C 97.082031 -97.269531 97.492188 -97.722656 98.359375 -98.582031 Z M 116.335938 -114.621094 C 116.273438 -114.691406 116.792969 -115.34375 117.136719 -115.636719 C 117.339844 -115.792969 117.339844 -115.792969 117.28125 -115.492188 C 117.21875 -115.191406 116.449219 -114.488281 116.335938 -114.621094 Z M 100.773438 -102.148438 C 100.726562 -102.199219 100.773438 -102.289062 100.855469 -102.359375 C 100.9375 -102.429688 101.039062 -102.515625 101.070312 -102.5625 C 101.113281 -102.59375 101.199219 -102.597656 101.261719 -102.5625 C 101.335938 -102.519531 101.257812 -102.402344 101.097656 -102.28125 C 100.953125 -102.160156 100.804688 -102.105469 100.773438 -102.148438 Z M 97.824219 -99.894531 C 97.828125 -99.953125 97.910156 -100.039062 98.007812 -100.070312 C 98.117188 -100.109375 98.109375 -100.050781 98 -99.957031 C 97.894531 -99.851562 97.808594 -99.828125 97.824219 -99.894531 Z M 97.824219 -99.894531 " fill-opacity="1" fill-rule="nonzero"/></g></g></g><g fill="#000000" fill-opacity="1"><g transform="translate(38.596387, 92.642512)"><g><path d="M 20.03125 0 L 5.78125 0 L 5.78125 -53.546875 L 37.421875 -53.546875 L 37.421875 -41.9375 L 20.03125 -41.9375 L 20.03125 -31.71875 L 36.078125 -31.71875 L 36.078125 -20.109375 L 20.03125 -20.109375 Z M 20.03125 0 "/></g></g></g><g fill="#000000" fill-opacity="1"><g transform="translate(64.651075, 92.642512)"><g><path d="M 38.640625 0 L 36 -10.03125 L 18.609375 -10.03125 L 15.890625 0 L 0 0 L 17.46875 -53.765625 L 36.765625 -53.765625 L 54.453125 0 Z M 33 -21.90625 L 30.6875 -30.6875 C 30.15625 -32.644531 29.503906 -35.171875 28.734375 -38.265625 C 27.960938 -41.367188 27.453125 -43.59375 27.203125 -44.9375 C 26.984375 -43.6875 26.550781 -41.632812 25.90625 -38.78125 C 25.257812 -35.925781 23.828125 -30.300781 21.609375 -21.90625 Z M 33 -21.90625 "/></g></g></g><g clip-path="url(#1432413069)"><g clip-path="url(#c0a9693fb7)"><g clip-path="url(#3aaee6117b)"><path fill="#ffffff" d="M 78.164062 65.234375 C 84.828125 60.5625 90.402344 56.539062 94.519531 53.410156 C 95.6875 52.53125 97.734375 50.984375 99.078125 49.964844 C 102.570312 47.332031 115.273438 37.367188 120.21875 33.378906 C 120.957031 32.792969 123.019531 31.152344 124.808594 29.75 C 126.589844 28.351562 128.257812 27.03125 128.507812 26.808594 C 128.757812 26.589844 131.671875 24.238281 134.972656 21.570312 C 138.285156 18.910156 142.78125 15.28125 144.976562 13.503906 C 147.175781 11.734375 151.253906 8.457031 154.066406 6.222656 C 162.921875 -0.835938 166.71875 -3.984375 169.808594 -6.851562 C 170.878906 -7.847656 171.554688 -8.550781 171.597656 -8.746094 C 171.640625 -8.921875 172.113281 -9.425781 172.800781 -10.042969 C 175.597656 -12.511719 176.699219 -13.65625 177.886719 -15.351562 C 178.648438 -16.445312 178.6875 -16.554688 178.628906 -17.183594 C 178.570312 -17.714844 178.503906 -17.882812 178.308594 -17.976562 C 178.125 -18.0625 178.070312 -18.140625 178.121094 -18.324219 C 178.207031 -18.644531 177.84375 -19.175781 177.511719 -19.214844 C 177.285156 -19.238281 177.265625 -19.273438 177.328125 -19.480469 C 177.441406 -19.835938 177.175781 -20.011719 176.445312 -20.117188 C 176.078125 -20.160156 175.753906 -20.28125 175.734375 -20.382812 C 175.652344 -20.6875 175.355469 -20.839844 174.929688 -20.78125 C 173.8125 -20.652344 169.175781 -17.742188 165.855469 -15.09375 C 164.597656 -14.089844 162.332031 -12.324219 160.835938 -11.152344 C 159.328125 -9.992188 157.839844 -8.828125 157.527344 -8.582031 C 157.222656 -8.324219 156.371094 -7.660156 155.640625 -7.109375 C 154.90625 -6.558594 154.015625 -5.867188 153.632812 -5.574219 C 152.929688 -5.027344 151.339844 -3.824219 149.132812 -2.167969 C 148.421875 -1.648438 147.179688 -0.71875 146.367188 -0.09375 C 144.910156 1 144.363281 1.257812 145.464844 0.324219 C 147.625 -1.476562 147.480469 -1.429688 144.441406 0.730469 C 137.515625 5.632812 125.035156 15.152344 117.542969 21.242188 C 115.832031 22.621094 113.449219 24.546875 112.257812 25.507812 C 111.050781 26.464844 108.730469 28.363281 107.085938 29.699219 C 105.441406 31.054688 102.765625 33.210938 101.128906 34.511719 C 99.492188 35.808594 96.4375 38.277344 94.335938 39.976562 C 90.625 42.96875 86.445312 46.289062 81.355469 50.246094 C 80.003906 51.28125 78.890625 52.191406 78.882812 52.246094 C 78.871094 52.351562 81.933594 50.339844 82.605469 49.816406 C 82.785156 49.65625 82.980469 49.589844 83.019531 49.644531 C 83.058594 49.699219 82.992188 49.792969 82.882812 49.871094 C 82.699219 49.976562 80.660156 51.535156 79.0625 52.792969 C 78.683594 53.085938 77.558594 53.9375 76.5625 54.667969 C 75.558594 55.402344 74.261719 56.355469 73.683594 56.800781 C 73.09375 57.234375 71.476562 58.421875 70.089844 59.421875 C 68.699219 60.421875 67.277344 61.476562 66.933594 61.746094 C 66.585938 62.015625 64.773438 63.335938 62.902344 64.667969 C 61.027344 65.996094 58.890625 67.523438 58.15625 68.074219 C 57.421875 68.625 54.519531 70.679688 51.714844 72.644531 C 48.898438 74.621094 46.011719 76.675781 45.273438 77.214844 C 38.554688 82.15625 -10.292969 115.667969 -17.328125 120.171875 C -19.824219 121.765625 -23.429688 124.066406 -25.335938 125.273438 C -29.527344 127.960938 -34.640625 131.328125 -34.363281 131.238281 C -34.25 131.191406 -33.324219 130.691406 -32.316406 130.117188 L -30.464844 129.0625 L -32.09375 130.207031 C -32.988281 130.851562 -33.78125 131.476562 -33.863281 131.613281 C -33.988281 131.8125 -33.949219 131.820312 -33.6875 131.59375 C -33.503906 131.433594 -33.324219 131.34375 -33.289062 131.398438 C -33.257812 131.445312 -33.535156 131.699219 -33.917969 131.960938 C -34.34375 132.253906 -34.570312 132.34375 -34.511719 132.222656 C -34.46875 132.09375 -34.597656 132.164062 -34.871094 132.402344 C -35.554688 133 -43.980469 137.703125 -47.324219 139.351562 C -47.800781 139.597656 -48.03125 139.773438 -48.097656 139.960938 C -48.152344 140.113281 -48.359375 140.304688 -48.601562 140.421875 C -48.871094 140.542969 -48.988281 140.65625 -48.929688 140.742188 C -48.882812 140.808594 -48.734375 140.792969 -48.59375 140.695312 C -48.449219 140.597656 -48.1875 140.53125 -48.007812 140.539062 C -47.691406 140.550781 -47.683594 140.5625 -47.890625 140.800781 C -48.152344 141.128906 -48.039062 141.246094 -47.621094 141.078125 C -43.246094 139.292969 -26.199219 129.820312 -7.554688 118.828125 C -5.609375 117.675781 -2.730469 116.003906 -1.167969 115.113281 C 0.394531 114.226562 2.78125 112.851562 4.136719 112.054688 C 5.496094 111.273438 7.523438 110.097656 8.636719 109.46875 C 9.75 108.835938 11.949219 107.5625 13.523438 106.617188 C 15.082031 105.679688 17.945312 103.984375 19.867188 102.847656 C 28.800781 97.570312 32.371094 95.335938 42.871094 88.515625 C 44.675781 87.34375 46.292969 86.304688 46.46875 86.203125 C 46.648438 86.09375 47.730469 85.371094 48.890625 84.59375 C 50.15625 83.742188 50.992188 83.253906 50.988281 83.335938 C 51 83.425781 51.097656 83.425781 51.1875 83.347656 C 52.046875 82.746094 53.417969 81.90625 54.113281 81.558594 C 55.164062 81.050781 68.976562 71.667969 78.164062 65.234375 Z M 87.785156 51.957031 C 87.796875 51.882812 88.496094 51.304688 89.351562 50.671875 C 90.195312 50.027344 91.066406 49.351562 91.292969 49.164062 C 91.519531 48.976562 92.367188 48.3125 93.1875 47.703125 C 94.011719 47.09375 94.902344 46.402344 95.195312 46.167969 C 95.46875 45.933594 96.183594 45.378906 96.761719 44.933594 C 97.339844 44.488281 97.980469 43.984375 98.164062 43.808594 C 98.359375 43.644531 99.03125 43.101562 99.675781 42.613281 C 100.304688 42.117188 100.964844 41.601562 101.132812 41.453125 C 101.292969 41.308594 101.886719 40.835938 102.425781 40.402344 C 103.390625 39.648438 103.941406 39.207031 105.34375 38.082031 C 105.722656 37.789062 106.441406 37.21875 106.964844 36.808594 C 108.285156 35.777344 109.390625 34.902344 109.933594 34.453125 C 110.464844 34.003906 112.589844 32.292969 113.867188 31.269531 C 114.359375 30.882812 114.957031 30.394531 115.21875 30.183594 C 115.476562 29.972656 116.074219 29.484375 116.566406 29.097656 C 117.058594 28.710938 117.714844 28.195312 118.023438 27.9375 C 118.335938 27.691406 118.964844 27.179688 119.425781 26.816406 C 120.582031 25.894531 121.308594 25.3125 123.578125 23.484375 C 126.152344 21.414062 129.734375 18.585938 131.195312 17.457031 C 131.828125 16.972656 132.734375 16.273438 133.199219 15.921875 C 133.660156 15.558594 134.363281 15.011719 134.769531 14.683594 C 136.722656 13.167969 138.460938 11.878906 138.457031 11.964844 C 138.4375 12.078125 137.675781 12.730469 136.324219 13.785156 C 135.832031 14.171875 135.269531 14.621094 135.085938 14.796875 C 134.890625 14.960938 134.335938 15.421875 133.847656 15.804688 C 132.175781 17.128906 131.605469 17.585938 131.039062 18.050781 C 130.734375 18.308594 128.449219 20.117188 125.992188 22.078125 C 123.519531 24.03125 120.601562 26.371094 119.488281 27.261719 C 113.761719 31.867188 106.417969 37.707031 100.375 42.460938 C 99.964844 42.773438 99.148438 43.414062 98.535156 43.882812 C 97.921875 44.351562 96.609375 45.347656 95.636719 46.109375 C 93.351562 47.871094 92.117188 48.8125 90.195312 50.257812 C 89.339844 50.890625 88.648438 51.433594 88.644531 51.449219 C 88.617188 51.550781 87.757812 52.058594 87.785156 51.957031 Z M 32.371094 89.390625 C 25.597656 93.847656 23.363281 95.308594 15.179688 100.578125 C 5.644531 106.710938 2.121094 108.925781 0.652344 109.667969 C 0.15625 109.925781 0.0976562 109.933594 0.273438 109.699219 C 0.394531 109.550781 0.425781 109.480469 0.34375 109.519531 C 0.269531 109.554688 0.167969 109.542969 0.128906 109.488281 C 0.0351562 109.355469 -0.183594 109.503906 36.824219 84.140625 C 52.03125 73.71875 65.277344 64.59375 66.277344 63.84375 C 67.75 62.753906 76.683594 56.558594 77.496094 56.054688 C 77.917969 55.796875 77.675781 56.175781 77.167969 56.558594 C 75.261719 58.007812 73.964844 58.976562 72.148438 60.316406 C 71 61.152344 69.910156 61.960938 69.75 62.105469 C 69.582031 62.253906 69.046875 62.652344 68.554688 62.988281 C 67.804688 63.515625 67.691406 63.628906 67.832031 63.742188 C 67.953125 63.824219 67.949219 63.910156 67.828125 63.992188 C 67.707031 64.074219 67.625 64.050781 67.59375 63.90625 C 67.542969 63.746094 67.421875 63.777344 66.953125 64.101562 C 66.4375 64.453125 66.371094 64.546875 66.457031 64.8125 L 66.550781 65.109375 L 66.28125 64.886719 L 66.015625 64.660156 L 66.125 64.960938 C 66.214844 65.210938 66.167969 65.304688 65.792969 65.53125 C 65.335938 65.828125 61.746094 68.429688 60.074219 69.703125 C 59.519531 70.117188 57.410156 71.640625 55.394531 73.085938 C 53.375 74.53125 51.53125 75.859375 51.300781 76.035156 C 51.066406 76.210938 49.734375 77.15625 48.339844 78.125 C 46.871094 79.128906 45.835938 79.917969 45.875 79.976562 C 45.917969 80.042969 48.25 78.511719 51.675781 76.183594 C 54.820312 74.035156 57.4375 72.292969 57.488281 72.292969 C 57.644531 72.332031 38.320312 85.484375 32.371094 89.390625 Z M 66.976562 64.511719 C 66.953125 64.476562 66.957031 64.390625 67 64.3125 C 67.03125 64.242188 67.101562 64.226562 67.140625 64.28125 C 67.1875 64.347656 67.167969 64.441406 67.113281 64.480469 C 67.050781 64.523438 66.988281 64.53125 66.976562 64.511719 Z M 93.53125 45.804688 C 93.589844 45.730469 93.746094 45.625 93.859375 45.578125 C 93.992188 45.539062 93.941406 45.605469 93.765625 45.726562 C 93.578125 45.851562 93.488281 45.882812 93.53125 45.804688 Z M 95.609375 44.234375 C 95.617188 44.179688 95.710938 44.101562 95.808594 44.082031 C 95.917969 44.054688 95.910156 44.109375 95.789062 44.191406 C 95.675781 44.285156 95.585938 44.296875 95.609375 44.234375 Z M -0.308594 109.789062 C -0.347656 109.730469 -0.34375 109.648438 -0.289062 109.609375 C -0.222656 109.5625 -0.105469 109.566406 -0.0351562 109.601562 C 0.0429688 109.644531 0.0273438 109.71875 -0.0585938 109.777344 C -0.15625 109.847656 -0.265625 109.855469 -0.308594 109.789062 Z M 96.71875 43.296875 C 96.8125 43.199219 96.988281 43.078125 97.101562 43.035156 C 97.234375 42.992188 97.164062 43.074219 96.953125 43.214844 C 96.746094 43.359375 96.644531 43.398438 96.71875 43.296875 Z M 98.230469 42.097656 C 98.359375 41.976562 98.601562 41.8125 98.777344 41.722656 C 98.96875 41.625 98.863281 41.730469 98.570312 41.933594 C 98.261719 42.140625 98.117188 42.210938 98.230469 42.097656 Z M 77.863281 55.769531 C 77.910156 55.527344 78.128906 55.539062 78.132812 55.78125 C 78.144531 55.871094 78.070312 55.953125 77.984375 55.964844 C 77.886719 55.964844 77.839844 55.898438 77.863281 55.769531 Z M 99.796875 40.863281 C 99.925781 40.742188 100.167969 40.578125 100.347656 40.488281 C 100.535156 40.390625 100.429688 40.496094 100.136719 40.695312 C 99.828125 40.90625 99.683594 40.972656 99.796875 40.863281 Z M -18.625 121.875 C -18.5625 121.800781 -18.429688 121.710938 -18.351562 121.6875 C -18.25 121.667969 -18.289062 121.730469 -18.445312 121.832031 C -18.597656 121.9375 -18.667969 121.953125 -18.625 121.875 Z M -29.03125 128.996094 C -28.96875 128.921875 -28.839844 128.832031 -28.757812 128.808594 C -28.65625 128.789062 -28.699219 128.847656 -28.851562 128.953125 C -29.003906 129.058594 -29.074219 129.074219 -29.03125 128.996094 Z M 101.421875 39.589844 C 101.582031 39.449219 101.84375 39.265625 102.023438 39.175781 C 102.214844 39.078125 102.085938 39.199219 101.757812 39.425781 C 101.429688 39.648438 101.269531 39.722656 101.421875 39.589844 Z M -21.328125 123.5625 C -21.148438 123.40625 -20.820312 123.179688 -20.617188 123.074219 C -20.40625 122.964844 -20.542969 123.089844 -20.9375 123.359375 C -21.332031 123.628906 -21.5 123.710938 -21.328125 123.5625 Z M -30.96875 130.15625 C -30.84375 130.039062 -30.601562 129.875 -30.421875 129.78125 C -30.230469 129.683594 -30.335938 129.789062 -30.632812 129.992188 C -30.9375 130.203125 -31.085938 130.269531 -30.96875 130.15625 Z M 103.261719 38.167969 C 103.324219 38.09375 103.453125 38.003906 103.535156 37.980469 C 103.636719 37.960938 103.59375 38.019531 103.441406 38.125 C 103.289062 38.230469 103.21875 38.246094 103.261719 38.167969 Z M 102.785156 38.507812 C 102.796875 38.453125 102.886719 38.375 102.988281 38.355469 C 103.097656 38.328125 103.089844 38.382812 102.96875 38.464844 C 102.855469 38.558594 102.765625 38.570312 102.785156 38.507812 Z M -23.433594 124.839844 C -23.28125 124.703125 -22.988281 124.5 -22.773438 124.386719 C -22.5625 124.277344 -22.679688 124.386719 -23.039062 124.636719 C -23.402344 124.882812 -23.582031 124.972656 -23.433594 124.839844 Z M -32.578125 131.09375 C -32.453125 130.976562 -32.210938 130.8125 -32.03125 130.722656 C -31.839844 130.625 -31.945312 130.726562 -32.242188 130.929688 C -32.550781 131.140625 -32.695312 131.207031 -32.578125 131.09375 Z M -25.535156 126.113281 C -25.40625 125.992188 -25.167969 125.828125 -24.988281 125.738281 C -24.796875 125.640625 -24.902344 125.746094 -25.199219 125.949219 C -25.503906 126.15625 -25.652344 126.226562 -25.535156 126.113281 Z M -27.363281 127.199219 C -27.238281 127.082031 -27.019531 126.929688 -26.871094 126.863281 C -26.714844 126.789062 -26.808594 126.886719 -27.082031 127.074219 C -27.355469 127.261719 -27.480469 127.3125 -27.363281 127.199219 Z M -29.410156 128.4375 C -29.285156 128.320312 -29.042969 128.152344 -28.863281 128.0625 C -28.671875 127.964844 -28.777344 128.070312 -29.074219 128.273438 C -29.382812 128.484375 -29.527344 128.550781 -29.410156 128.4375 Z M 138.871094 11.632812 C 138.824219 11.566406 139.054688 11.359375 139.378906 11.152344 L 139.96875 10.769531 L 139.527344 11.183594 C 139.285156 11.414062 139.0625 11.632812 139.007812 11.667969 C 138.972656 11.710938 138.917969 11.699219 138.871094 11.632812 Z M 138.589844 11.925781 C 138.566406 11.890625 138.570312 11.804688 138.613281 11.726562 C 138.644531 11.65625 138.714844 11.640625 138.753906 11.695312 C 138.800781 11.761719 138.78125 11.855469 138.726562 11.894531 C 138.664062 11.9375 138.601562 11.945312 138.589844 11.925781 Z M 140.046875 10.765625 C 140.023438 10.730469 140.027344 10.644531 140.070312 10.566406 C 140.101562 10.496094 140.171875 10.480469 140.210938 10.535156 C 140.257812 10.601562 140.242188 10.695312 140.1875 10.734375 C 140.121094 10.777344 140.0625 10.785156 140.046875 10.765625 Z M 83.222656 49.425781 C 83.316406 49.328125 83.492188 49.207031 83.605469 49.164062 C 83.738281 49.121094 83.664062 49.203125 83.457031 49.34375 C 83.25 49.488281 83.144531 49.527344 83.222656 49.425781 Z M 152.058594 -0.425781 C 152.066406 -0.484375 152.160156 -0.5625 152.257812 -0.582031 C 152.367188 -0.605469 152.359375 -0.550781 152.238281 -0.46875 C 152.125 -0.375 152.035156 -0.363281 152.058594 -0.425781 Z M 151.621094 -0.128906 C 151.628906 -0.183594 151.71875 -0.261719 151.820312 -0.28125 C 151.929688 -0.308594 151.921875 -0.25 151.800781 -0.167969 C 151.6875 -0.0742188 151.597656 -0.0625 151.621094 -0.128906 Z M 153.179688 -1.375 C 153.382812 -1.546875 153.734375 -1.785156 153.945312 -1.898438 C 154.148438 -2.003906 153.976562 -1.855469 153.558594 -1.570312 C 153.132812 -1.277344 152.964844 -1.195312 153.179688 -1.375 Z M 156.179688 -3.734375 C 160.570312 -7.28125 165.335938 -11.390625 165.375 -11.660156 C 165.378906 -11.726562 164.820312 -11.347656 164.125 -10.808594 C 163.425781 -10.277344 162.410156 -9.484375 161.855469 -9.074219 C 161.308594 -8.648438 160.589844 -8.078125 160.261719 -7.804688 C 159.789062 -7.414062 159.652344 -7.355469 159.5625 -7.488281 C 159.5 -7.578125 159.496094 -7.722656 159.539062 -7.800781 C 159.644531 -7.953125 158.625 -7.191406 157.019531 -5.914062 C 156.570312 -5.539062 156.195312 -5.285156 156.207031 -5.339844 C 156.226562 -5.453125 160.957031 -9.324219 162.03125 -10.109375 C 162.320312 -10.324219 162.738281 -10.675781 162.941406 -10.894531 C 163.152344 -11.105469 163.765625 -11.640625 164.3125 -12.0625 C 165.46875 -12.984375 165.546875 -13.054688 166.65625 -14.042969 C 167.125 -14.460938 168.074219 -15.238281 168.773438 -15.765625 C 169.472656 -16.296875 170.824219 -17.332031 171.773438 -18.082031 C 173.300781 -19.304688 173.59375 -19.488281 174.480469 -19.835938 C 175.226562 -20.132812 175.554688 -20.195312 175.8125 -20.078125 C 176.511719 -19.785156 176.230469 -19.464844 173.730469 -17.6875 C 172.71875 -16.960938 170.90625 -15.542969 169.695312 -14.535156 C 167.832031 -12.984375 161.328125 -7.703125 157.085938 -4.292969 C 156.433594 -3.761719 155.578125 -3.113281 155.183594 -2.84375 C 154.789062 -2.570312 155.234375 -2.976562 156.179688 -3.734375 Z M 175.554688 -17.726562 C 175.5 -17.804688 176.078125 -18.394531 176.449219 -18.648438 C 176.667969 -18.78125 176.667969 -18.78125 176.574219 -18.492188 C 176.484375 -18.199219 175.652344 -17.582031 175.554688 -17.726562 Z M 158.917969 -7.015625 C 158.882812 -7.070312 158.933594 -7.15625 159.023438 -7.21875 C 159.109375 -7.277344 159.21875 -7.351562 159.257812 -7.394531 C 159.300781 -7.425781 159.386719 -7.417969 159.445312 -7.375 C 159.511719 -7.324219 159.425781 -7.214844 159.253906 -7.113281 C 159.101562 -7.011719 158.949219 -6.972656 158.917969 -7.015625 Z M 155.777344 -5.097656 C 155.789062 -5.152344 155.878906 -5.230469 155.980469 -5.25 C 156.089844 -5.277344 156.078125 -5.21875 155.960938 -5.136719 C 155.847656 -5.042969 155.757812 -5.03125 155.777344 -5.097656 Z M 155.777344 -5.097656 " fill-opacity="1" fill-rule="nonzero"/></g></g></g><g clip-path="url(#2bd4d4a8bd)"><g clip-path="url(#a8da699f24)"><g clip-path="url(#9e79e3f77c)"><path fill="#ffffff" d="M 45.757812 80.039062 C 45.726562 79.992188 45.628906 79.996094 45.542969 80.054688 C 45.453125 80.113281 45.386719 80.226562 45.382812 80.292969 C 45.390625 80.351562 45.488281 80.351562 45.609375 80.269531 C 45.71875 80.195312 45.785156 80.082031 45.757812 80.039062 Z M 45.757812 80.039062 " fill-opacity="1" fill-rule="nonzero"/></g></g></g></svg>