<svg xmlns="http://www.w3.org/2000/svg" xmlns:xlink="http://www.w3.org/1999/xlink" width="150" zoomAndPan="magnify" viewBox="0 0 112.5 112.499997" height="150" preserveAspectRatio="xMidYMid meet" version="1.0"><defs><clipPath id="8a7c4de0cf"><path d="M 0 0 L 112.003906 0 L 112.003906 112.003906 L 0 112.003906 Z M 0 0 " clip-rule="nonzero"/></clipPath><clipPath id="7bd98ba8d5"><path d="M 0 0 L 90 0 L 90 51 L 0 51 Z M 0 0 " clip-rule="nonzero"/></clipPath><clipPath id="4a7f00ad34"><path d="M 95.441406 -79.515625 L -64.574219 56.183594 L -72.941406 46.316406 L 87.074219 -89.382812 Z M 95.441406 -79.515625 " clip-rule="nonzero"/></clipPath><clipPath id="8cae17af23"><path d="M 95.441406 -79.515625 L -64.574219 56.183594 L -72.941406 46.316406 L 87.074219 -89.382812 Z M 95.441406 -79.515625 " clip-rule="nonzero"/></clipPath><clipPath id="721d7d2e93"><path d="M 0 0 L 112.003906 0 L 112.003906 106 L 0 106 Z M 0 0 " clip-rule="nonzero"/></clipPath><clipPath id="c433f48cac"><path d="M 139.132812 -6.027344 L -26.140625 107.039062 L -33.445312 96.359375 L 131.828125 -16.703125 Z M 139.132812 -6.027344 " clip-rule="nonzero"/></clipPath><clipPath id="9935e7ddb7"><path d="M 139.132812 -6.027344 L -32.640625 111.484375 L -39.945312 100.808594 L 131.828125 -16.703125 Z M 139.132812 -6.027344 " clip-rule="nonzero"/></clipPath><clipPath id="5b9c3eeb08"><path d="M 34 60 L 34.5 60 L 34.5 60.75 L 34 60.75 Z M 34 60 " clip-rule="nonzero"/></clipPath><clipPath id="2548d1b9db"><path d="M 139.132812 -6.027344 L -26.140625 107.039062 L -33.445312 96.359375 L 131.828125 -16.703125 Z M 139.132812 -6.027344 " clip-rule="nonzero"/></clipPath><clipPath id="adc8e197e1"><path d="M 139.132812 -6.027344 L -32.640625 111.484375 L -39.945312 100.808594 L 131.828125 -16.703125 Z M 139.132812 -6.027344 " clip-rule="nonzero"/></clipPath></defs><g clip-path="url(#8a7c4de0cf)"><rect x="-11.25" width="135" fill="#ffffff" y="-11.25" height="134.999996" fill-opacity="1"/><rect x="-11.25" width="135" fill="#ffffff" y="-11.25" height="134.999996" fill-opacity="1"/><rect x="-11.25" width="135" fill="#ffffff" y="-11.25" height="134.999996" fill-opacity="1"/></g><g clip-path="url(#7bd98ba8d5)"><g clip-path="url(#4a7f00ad34)"><g clip-path="url(#8cae17af23)"><path fill="#ffffff" d="M 20.429688 -16.035156 C 25.078125 -20.070312 28.957031 -23.535156 31.808594 -26.203125 C 32.617188 -26.957031 34.035156 -28.28125 34.96875 -29.148438 C 37.386719 -31.398438 46.171875 -39.882812 49.578125 -43.261719 C 50.089844 -43.761719 51.515625 -45.15625 52.75 -46.351562 C 53.980469 -47.539062 55.132812 -48.660156 55.304688 -48.847656 C 55.476562 -49.035156 57.484375 -51.027344 59.761719 -53.289062 C 62.046875 -55.546875 65.144531 -58.625 66.65625 -60.132812 C 68.171875 -61.632812 70.984375 -64.414062 72.929688 -66.3125 C 79.042969 -72.308594 81.652344 -74.96875 83.757812 -77.363281 C 84.484375 -78.195312 84.9375 -78.777344 84.957031 -78.925781 C 84.976562 -79.058594 85.292969 -79.476562 85.761719 -79.996094 C 87.671875 -82.066406 88.410156 -83.011719 89.175781 -84.378906 C 89.667969 -85.257812 89.6875 -85.339844 89.59375 -85.808594 C 89.511719 -86.199219 89.453125 -86.320312 89.300781 -86.375 C 89.152344 -86.421875 89.105469 -86.476562 89.132812 -86.617188 C 89.171875 -86.863281 88.855469 -87.234375 88.609375 -87.238281 C 88.433594 -87.238281 88.417969 -87.261719 88.449219 -87.421875 C 88.507812 -87.695312 88.292969 -87.804688 87.738281 -87.824219 C 87.460938 -87.828125 87.207031 -87.894531 87.1875 -87.964844 C 87.101562 -88.1875 86.867188 -88.28125 86.554688 -88.199219 C 85.726562 -88.011719 82.46875 -85.460938 80.175781 -83.214844 C 79.308594 -82.359375 77.738281 -80.855469 76.703125 -79.859375 C 75.660156 -78.871094 74.632812 -77.878906 74.417969 -77.667969 C 74.207031 -77.453125 73.621094 -76.886719 73.113281 -76.414062 C 72.601562 -75.945312 71.984375 -75.355469 71.722656 -75.105469 C 71.238281 -74.640625 70.132812 -73.609375 68.601562 -72.191406 C 68.109375 -71.746094 67.246094 -70.949219 66.683594 -70.421875 C 65.675781 -69.484375 65.285156 -69.246094 66.039062 -70.03125 C 67.523438 -71.558594 67.417969 -71.507812 65.300781 -69.644531 C 60.472656 -65.417969 51.828125 -57.292969 46.664062 -52.128906 C 45.484375 -50.957031 43.84375 -49.328125 43.023438 -48.511719 C 42.1875 -47.699219 40.589844 -46.089844 39.457031 -44.957031 C 38.324219 -43.8125 36.480469 -41.980469 35.351562 -40.878906 C 34.222656 -39.777344 32.113281 -37.683594 30.664062 -36.242188 C 28.105469 -33.703125 25.222656 -30.882812 21.699219 -27.511719 C 20.765625 -26.628906 19.996094 -25.855469 19.996094 -25.8125 C 19.996094 -25.734375 22.140625 -27.488281 22.605469 -27.933594 C 22.726562 -28.066406 22.871094 -28.132812 22.902344 -28.09375 C 22.9375 -28.058594 22.894531 -27.980469 22.820312 -27.917969 C 22.691406 -27.820312 21.277344 -26.488281 20.171875 -25.421875 C 19.910156 -25.171875 19.132812 -24.445312 18.441406 -23.816406 C 17.738281 -23.183594 16.839844 -22.367188 16.4375 -21.988281 C 16.027344 -21.613281 14.90625 -20.59375 13.941406 -19.738281 C 12.96875 -18.875 11.984375 -17.972656 11.746094 -17.746094 C 11.507812 -17.511719 10.246094 -16.378906 8.941406 -15.234375 C 7.636719 -14.085938 6.148438 -12.769531 5.640625 -12.300781 C 5.128906 -11.828125 3.105469 -10.058594 1.152344 -8.359375 C -0.8125 -6.65625 -2.824219 -4.886719 -3.335938 -4.421875 C -8.007812 -0.183594 -42.128906 28.832031 -47.066406 32.765625 C -48.820312 34.160156 -51.347656 36.171875 -52.691406 37.230469 C -55.632812 39.578125 -59.210938 42.507812 -59.011719 42.417969 C -58.929688 42.375 -58.273438 41.925781 -57.5625 41.414062 L -56.253906 40.476562 L -57.386719 41.464844 C -58.007812 42.019531 -58.558594 42.550781 -58.609375 42.660156 C -58.6875 42.820312 -58.65625 42.824219 -58.480469 42.628906 C -58.351562 42.496094 -58.222656 42.414062 -58.191406 42.453125 C -58.164062 42.484375 -58.355469 42.695312 -58.621094 42.925781 C -58.921875 43.175781 -59.085938 43.261719 -59.046875 43.164062 C -59.027344 43.070312 -59.117188 43.132812 -59.304688 43.328125 C -59.773438 43.832031 -65.738281 48.03125 -68.125 49.535156 C -68.460938 49.757812 -68.625 49.90625 -68.65625 50.054688 C -68.6875 50.171875 -68.828125 50.332031 -69 50.441406 C -69.195312 50.550781 -69.273438 50.644531 -69.222656 50.707031 C -69.179688 50.753906 -69.074219 50.726562 -68.972656 50.640625 C -68.875 50.558594 -68.683594 50.488281 -68.546875 50.476562 C -68.308594 50.464844 -68.300781 50.46875 -68.441406 50.664062 C -68.609375 50.929688 -68.515625 51.007812 -68.21875 50.851562 C -65.070312 49.164062 -52.996094 40.699219 -39.835938 30.972656 C -38.464844 29.953125 -36.433594 28.46875 -35.324219 27.679688 C -34.222656 26.886719 -32.535156 25.667969 -31.578125 24.964844 C -30.613281 24.265625 -29.183594 23.222656 -28.398438 22.664062 C -27.609375 22.101562 -26.054688 20.96875 -24.945312 20.136719 C -23.847656 19.308594 -21.828125 17.808594 -20.46875 16.804688 C -14.167969 12.132812 -11.652344 10.179688 -4.292969 4.226562 C -3.027344 3.207031 -1.890625 2.296875 -1.769531 2.207031 C -1.640625 2.109375 -0.882812 1.484375 -0.0742188 0.808594 C 0.8125 0.0664062 1.402344 -0.367188 1.40625 -0.300781 C 1.421875 -0.238281 1.496094 -0.242188 1.554688 -0.308594 C 2.152344 -0.832031 3.121094 -1.570312 3.617188 -1.882812 C 4.367188 -2.347656 14.023438 -10.480469 20.429688 -16.035156 Z M 26.652344 -26.746094 C 26.652344 -26.804688 27.132812 -27.292969 27.730469 -27.835938 C 28.316406 -28.386719 28.914062 -28.960938 29.070312 -29.121094 C 29.226562 -29.277344 29.816406 -29.84375 30.382812 -30.367188 C 30.953125 -30.890625 31.574219 -31.480469 31.773438 -31.679688 C 31.960938 -31.875 32.453125 -32.347656 32.855469 -32.726562 C 33.257812 -33.109375 33.695312 -33.535156 33.824219 -33.683594 C 33.953125 -33.820312 34.421875 -34.28125 34.867188 -34.699219 C 35.300781 -35.121094 35.757812 -35.558594 35.875 -35.6875 C 35.980469 -35.804688 36.390625 -36.203125 36.765625 -36.574219 C 37.429688 -37.21875 37.808594 -37.59375 38.777344 -38.546875 C 39.039062 -38.792969 39.535156 -39.28125 39.898438 -39.628906 C 40.808594 -40.507812 41.574219 -41.25 41.949219 -41.632812 C 42.3125 -42.007812 43.777344 -43.464844 44.664062 -44.332031 C 45.003906 -44.660156 45.414062 -45.074219 45.589844 -45.25 C 45.769531 -45.429688 46.179688 -45.84375 46.519531 -46.171875 C 46.859375 -46.503906 47.316406 -46.941406 47.527344 -47.160156 C 47.742188 -47.371094 48.179688 -47.804688 48.496094 -48.109375 C 49.292969 -48.894531 49.796875 -49.386719 51.359375 -50.941406 C 53.132812 -52.695312 55.609375 -55.101562 56.617188 -56.066406 C 57.058594 -56.476562 57.683594 -57.074219 58.007812 -57.375 C 58.328125 -57.683594 58.8125 -58.148438 59.089844 -58.425781 C 60.441406 -59.71875 61.652344 -60.820312 61.65625 -60.753906 C 61.644531 -60.671875 61.125 -60.121094 60.191406 -59.222656 C 59.851562 -58.894531 59.464844 -58.515625 59.335938 -58.367188 C 59.207031 -58.230469 58.824219 -57.839844 58.484375 -57.511719 C 57.332031 -56.386719 56.933594 -56 56.546875 -55.605469 C 56.335938 -55.386719 54.761719 -53.851562 53.066406 -52.1875 C 51.355469 -50.523438 49.339844 -48.539062 48.578125 -47.78125 C 44.625 -43.878906 39.554688 -38.914062 35.382812 -34.867188 C 35.097656 -34.601562 34.53125 -34.058594 34.105469 -33.65625 C 33.683594 -33.257812 32.773438 -32.40625 32.101562 -31.757812 C 30.519531 -30.253906 29.664062 -29.449219 28.328125 -28.210938 C 27.734375 -27.671875 27.257812 -27.210938 27.257812 -27.195312 C 27.242188 -27.121094 26.636719 -26.671875 26.652344 -26.746094 Z M -12.097656 5.726562 C -16.847656 9.609375 -18.414062 10.878906 -24.15625 15.484375 C -30.847656 20.839844 -33.320312 22.78125 -34.367188 23.457031 C -34.722656 23.691406 -34.765625 23.699219 -34.652344 23.511719 C -34.570312 23.390625 -34.550781 23.335938 -34.609375 23.371094 C -34.664062 23.402344 -34.742188 23.402344 -34.773438 23.363281 C -34.855469 23.273438 -35.007812 23.402344 -9.15625 1.441406 C 1.46875 -7.582031 10.71875 -15.480469 11.410156 -16.121094 C 12.4375 -17.054688 18.671875 -22.410156 19.242188 -22.855469 C 19.539062 -23.078125 19.386719 -22.777344 19.03125 -22.449219 C 17.714844 -21.214844 16.8125 -20.382812 15.550781 -19.234375 C 14.75 -18.515625 13.996094 -17.820312 13.886719 -17.703125 C 13.769531 -17.578125 13.402344 -17.238281 13.054688 -16.945312 C 12.535156 -16.488281 12.453125 -16.398438 12.570312 -16.320312 C 12.667969 -16.269531 12.667969 -16.207031 12.585938 -16.132812 C 12.5 -16.0625 12.4375 -16.074219 12.402344 -16.179688 C 12.355469 -16.296875 12.265625 -16.261719 11.9375 -15.984375 C 11.578125 -15.679688 11.539062 -15.601562 11.621094 -15.410156 L 11.710938 -15.195312 L 11.277344 -15.488281 L 11.382812 -15.273438 C 11.464844 -15.09375 11.441406 -15.015625 11.175781 -14.816406 C 10.855469 -14.558594 8.355469 -12.320312 7.199219 -11.234375 C 6.816406 -10.882812 5.347656 -9.570312 3.945312 -8.328125 C 2.539062 -7.082031 1.253906 -5.941406 1.09375 -5.792969 C 0.933594 -5.640625 0.00390625 -4.828125 -0.96875 -3.988281 C -1.996094 -3.121094 -2.710938 -2.441406 -2.679688 -2.40625 C -2.640625 -2.359375 -1.007812 -3.691406 1.386719 -5.710938 C 3.582031 -7.574219 5.417969 -9.085938 5.453125 -9.089844 C 5.574219 -9.074219 -7.933594 2.328125 -12.097656 5.726562 Z M 11.984375 -15.679688 C 11.964844 -15.703125 11.960938 -15.765625 11.988281 -15.828125 C 12.007812 -15.882812 12.058594 -15.902344 12.089844 -15.859375 C 12.132812 -15.816406 12.125 -15.742188 12.089844 -15.710938 C 12.042969 -15.671875 11.996094 -15.660156 11.984375 -15.679688 Z M 30.496094 -31.816406 C 30.539062 -31.878906 30.644531 -31.96875 30.726562 -32.007812 C 30.824219 -32.054688 30.789062 -31.996094 30.667969 -31.894531 C 30.539062 -31.785156 30.472656 -31.753906 30.496094 -31.816406 Z M 31.9375 -33.15625 C 31.941406 -33.199219 32.003906 -33.265625 32.078125 -33.289062 C 32.160156 -33.316406 32.15625 -33.273438 32.070312 -33.203125 C 31.996094 -33.125 31.925781 -33.109375 31.9375 -33.15625 Z M -35.082031 23.625 C -35.113281 23.585938 -35.113281 23.523438 -35.078125 23.488281 C -35.03125 23.449219 -34.945312 23.441406 -34.890625 23.460938 C -34.828125 23.488281 -34.832031 23.546875 -34.890625 23.597656 C -34.960938 23.65625 -35.042969 23.671875 -35.082031 23.625 Z M 32.699219 -33.949219 C 32.765625 -34.03125 32.886719 -34.132812 32.96875 -34.175781 C 33.0625 -34.21875 33.015625 -34.152344 32.871094 -34.027344 C 32.726562 -33.90625 32.652344 -33.871094 32.699219 -33.949219 Z M 33.746094 -34.96875 C 33.832031 -35.066406 34 -35.210938 34.128906 -35.292969 C 34.265625 -35.382812 34.191406 -35.292969 33.988281 -35.117188 C 33.773438 -34.9375 33.667969 -34.875 33.746094 -34.96875 Z M 19.496094 -23.097656 C 19.511719 -23.28125 19.675781 -23.289062 19.699219 -23.109375 C 19.714844 -23.042969 19.667969 -22.972656 19.597656 -22.960938 C 19.527344 -22.949219 19.488281 -22.996094 19.496094 -23.097656 Z M 34.828125 -36.019531 C 34.914062 -36.121094 35.082031 -36.261719 35.210938 -36.34375 C 35.347656 -36.433594 35.277344 -36.34375 35.066406 -36.167969 C 34.855469 -35.988281 34.75 -35.925781 34.828125 -36.019531 Z M -47.910156 34.144531 C -47.871094 34.082031 -47.777344 34.007812 -47.71875 33.984375 C -47.644531 33.960938 -47.671875 34.007812 -47.777344 34.097656 C -47.886719 34.1875 -47.933594 34.207031 -47.910156 34.144531 Z M -55.179688 40.3125 C -55.140625 40.25 -55.046875 40.171875 -54.988281 40.148438 C -54.917969 40.128906 -54.941406 40.175781 -55.046875 40.265625 C -55.15625 40.355469 -55.207031 40.375 -55.179688 40.3125 Z M 35.949219 -37.101562 C 36.058594 -37.222656 36.242188 -37.375 36.367188 -37.457031 C 36.507812 -37.546875 36.417969 -37.445312 36.191406 -37.253906 C 35.957031 -37.058594 35.847656 -36.988281 35.949219 -37.101562 Z M -49.8125 35.625 C -49.6875 35.492188 -49.457031 35.300781 -49.316406 35.203125 C -49.164062 35.101562 -49.257812 35.207031 -49.535156 35.441406 C -49.808594 35.675781 -49.929688 35.75 -49.8125 35.625 Z M -56.546875 41.335938 C -56.460938 41.238281 -56.292969 41.09375 -56.164062 41.011719 C -56.03125 40.925781 -56.101562 41.011719 -56.308594 41.183594 C -56.523438 41.367188 -56.628906 41.429688 -56.546875 41.335938 Z M 37.222656 -38.3125 C 37.261719 -38.375 37.355469 -38.453125 37.414062 -38.476562 C 37.488281 -38.5 37.460938 -38.453125 37.355469 -38.359375 C 37.246094 -38.269531 37.199219 -38.253906 37.222656 -38.3125 Z M 36.894531 -38.019531 C 36.894531 -38.066406 36.957031 -38.128906 37.03125 -38.152344 C 37.113281 -38.183594 37.109375 -38.136719 37.023438 -38.066406 C 36.949219 -37.988281 36.882812 -37.972656 36.894531 -38.019531 Z M -51.292969 36.75 C -51.191406 36.636719 -50.984375 36.460938 -50.835938 36.359375 C -50.683594 36.257812 -50.761719 36.351562 -51.015625 36.566406 C -51.265625 36.777344 -51.394531 36.859375 -51.292969 36.75 Z M -57.683594 42.167969 C -57.597656 42.070312 -57.429688 41.925781 -57.300781 41.84375 C -57.167969 41.757812 -57.238281 41.839844 -57.445312 42.015625 C -57.660156 42.199219 -57.765625 42.261719 -57.683594 42.167969 Z M -52.773438 37.871094 C -52.6875 37.773438 -52.519531 37.632812 -52.390625 37.550781 C -52.257812 37.457031 -52.328125 37.546875 -52.535156 37.722656 C -52.75 37.902344 -52.855469 37.964844 -52.773438 37.871094 Z M -54.0625 38.832031 C -53.980469 38.734375 -53.828125 38.605469 -53.722656 38.542969 C -53.605469 38.472656 -53.671875 38.554688 -53.863281 38.714844 C -54.054688 38.875 -54.144531 38.925781 -54.0625 38.832031 Z M -55.507812 39.925781 C -55.421875 39.824219 -55.253906 39.683594 -55.125 39.601562 C -54.988281 39.511719 -55.058594 39.601562 -55.269531 39.773438 C -55.480469 39.953125 -55.585938 40.019531 -55.507812 39.925781 Z M 61.9375 -61.039062 C 61.902344 -61.085938 62.054688 -61.257812 62.285156 -61.4375 L 62.699219 -61.773438 L 62.398438 -61.429688 C 62.234375 -61.234375 62.085938 -61.058594 62.042969 -61.023438 C 62.019531 -60.988281 61.980469 -60.992188 61.9375 -61.039062 Z M 61.75 -60.800781 C 61.730469 -60.824219 61.726562 -60.886719 61.753906 -60.949219 C 61.773438 -61.003906 61.824219 -61.023438 61.855469 -60.980469 C 61.894531 -60.9375 61.890625 -60.863281 61.851562 -60.832031 C 61.808594 -60.792969 61.761719 -60.78125 61.75 -60.800781 Z M 62.757812 -61.785156 C 62.734375 -61.808594 62.734375 -61.871094 62.757812 -61.933594 C 62.78125 -61.988281 62.828125 -62.007812 62.863281 -61.96875 C 62.902344 -61.921875 62.898438 -61.851562 62.859375 -61.820312 C 62.8125 -61.78125 62.769531 -61.769531 62.757812 -61.785156 Z M 23.039062 -28.277344 C 23.101562 -28.355469 23.226562 -28.460938 23.304688 -28.503906 C 23.402344 -28.542969 23.355469 -28.476562 23.207031 -28.351562 C 23.066406 -28.230469 22.988281 -28.195312 23.039062 -28.277344 Z M 70.925781 -71.125 C 70.929688 -71.171875 70.992188 -71.234375 71.066406 -71.257812 C 71.144531 -71.289062 71.140625 -71.242188 71.058594 -71.171875 C 70.980469 -71.09375 70.914062 -71.078125 70.925781 -71.125 Z M 70.621094 -70.867188 C 70.621094 -70.910156 70.683594 -70.976562 70.757812 -70.996094 C 70.839844 -71.027344 70.835938 -70.984375 70.75 -70.914062 C 70.675781 -70.832031 70.609375 -70.820312 70.621094 -70.867188 Z M 71.695312 -71.925781 C 71.835938 -72.070312 72.082031 -72.277344 72.230469 -72.378906 C 72.375 -72.472656 72.257812 -72.347656 71.96875 -72.101562 C 71.667969 -71.851562 71.546875 -71.773438 71.695312 -71.925781 Z M 73.769531 -73.9375 C 76.796875 -76.941406 80.0625 -80.398438 80.070312 -80.605469 C 80.066406 -80.65625 79.679688 -80.324219 79.199219 -79.867188 C 78.714844 -79.414062 78.011719 -78.738281 77.625 -78.386719 C 77.246094 -78.027344 76.75 -77.539062 76.527344 -77.308594 C 76.199219 -76.980469 76.105469 -76.921875 76.023438 -77.015625 C 75.972656 -77.078125 75.960938 -77.183594 75.984375 -77.246094 C 76.050781 -77.371094 75.34375 -76.714844 74.238281 -75.632812 C 73.925781 -75.316406 73.667969 -75.097656 73.667969 -75.136719 C 73.675781 -75.222656 76.933594 -78.503906 77.679688 -79.175781 C 77.878906 -79.359375 78.167969 -79.65625 78.304688 -79.835938 C 78.445312 -80.007812 78.867188 -80.460938 79.246094 -80.820312 C 80.042969 -81.601562 80.097656 -81.660156 80.855469 -82.492188 C 81.175781 -82.84375 81.824219 -83.5 82.3125 -83.953125 C 82.796875 -84.402344 83.734375 -85.289062 84.390625 -85.925781 C 85.441406 -86.964844 85.648438 -87.125 86.289062 -87.457031 C 86.824219 -87.742188 87.066406 -87.8125 87.269531 -87.742188 C 87.8125 -87.582031 87.628906 -87.320312 85.886719 -85.789062 C 85.179688 -85.164062 83.929688 -83.957031 83.097656 -83.105469 C 81.8125 -81.792969 77.335938 -77.316406 74.40625 -74.421875 C 73.957031 -73.976562 73.363281 -73.421875 73.085938 -73.1875 C 72.8125 -72.953125 73.117188 -73.292969 73.769531 -73.9375 Z M 87.25 -85.964844 C 87.203125 -86.019531 87.59375 -86.507812 87.851562 -86.726562 C 88.003906 -86.84375 88.003906 -86.84375 87.960938 -86.617188 C 87.914062 -86.394531 87.335938 -85.867188 87.25 -85.964844 Z M 75.578125 -76.609375 C 75.542969 -76.648438 75.578125 -76.714844 75.640625 -76.769531 C 75.703125 -76.820312 75.777344 -76.886719 75.800781 -76.921875 C 75.835938 -76.945312 75.898438 -76.949219 75.945312 -76.921875 C 76 -76.890625 75.941406 -76.800781 75.824219 -76.710938 C 75.714844 -76.621094 75.601562 -76.578125 75.578125 -76.609375 Z M 73.367188 -74.921875 C 73.371094 -74.964844 73.433594 -75.027344 73.503906 -75.050781 C 73.585938 -75.082031 73.582031 -75.039062 73.5 -74.96875 C 73.421875 -74.886719 73.355469 -74.871094 73.367188 -74.921875 Z M 73.367188 -74.921875 " fill-opacity="1" fill-rule="nonzero"/></g></g></g><path fill="#000000" d="M 43.96875 69.480469 L 33.28125 69.480469 L 33.28125 29.320312 L 57.011719 29.320312 L 57.011719 38.027344 L 43.96875 38.027344 L 43.96875 45.691406 L 56.003906 45.691406 L 56.003906 54.398438 L 43.96875 54.398438 Z M 43.96875 69.480469 " fill-opacity="1" fill-rule="nonzero"/><path fill="#000000" d="M 77.46875 69.480469 L 75.488281 61.957031 L 62.445312 61.957031 L 60.40625 69.480469 L 48.488281 69.480469 L 61.589844 29.15625 L 76.0625 29.15625 L 89.328125 69.480469 Z M 73.238281 53.050781 L 71.503906 46.464844 C 71.105469 45 70.617188 43.101562 70.039062 40.78125 C 69.457031 38.457031 69.078125 36.785156 68.890625 35.777344 C 68.726562 36.714844 68.402344 38.257812 67.917969 40.394531 C 67.429688 42.539062 66.359375 46.757812 64.695312 53.050781 Z M 73.238281 53.050781 " fill-opacity="1" fill-rule="nonzero"/><g clip-path="url(#721d7d2e93)"><g clip-path="url(#c433f48cac)"><g clip-path="url(#9935e7ddb7)"><path fill="#ffffff" d="M 58.621094 48.925781 C 63.621094 45.421875 67.800781 42.402344 70.890625 40.058594 C 71.765625 39.398438 73.300781 38.238281 74.308594 37.472656 C 76.925781 35.5 86.453125 28.023438 90.164062 25.035156 C 90.71875 24.59375 92.265625 23.363281 93.605469 22.3125 C 94.941406 21.261719 96.191406 20.273438 96.378906 20.105469 C 96.566406 19.941406 98.753906 18.179688 101.230469 16.175781 C 103.714844 14.183594 107.085938 11.460938 108.730469 10.128906 C 110.382812 8.800781 113.441406 6.34375 115.550781 4.667969 C 122.191406 -0.625 125.039062 -2.988281 127.355469 -5.136719 C 128.160156 -5.886719 128.664062 -6.414062 128.699219 -6.558594 C 128.730469 -6.691406 129.085938 -7.070312 129.601562 -7.53125 C 131.699219 -9.382812 132.523438 -10.242188 133.414062 -11.511719 C 133.984375 -12.332031 134.015625 -12.414062 133.972656 -12.886719 C 133.925781 -13.285156 133.878906 -13.410156 133.730469 -13.480469 C 133.59375 -13.546875 133.550781 -13.605469 133.589844 -13.742188 C 133.65625 -13.984375 133.382812 -14.382812 133.132812 -14.410156 C 132.964844 -14.429688 132.949219 -14.453125 132.996094 -14.609375 C 133.082031 -14.875 132.882812 -15.007812 132.332031 -15.085938 C 132.058594 -15.121094 131.816406 -15.210938 131.800781 -15.285156 C 131.738281 -15.515625 131.515625 -15.628906 131.195312 -15.585938 C 130.359375 -15.488281 126.882812 -13.304688 124.390625 -11.320312 C 123.449219 -10.566406 121.75 -9.242188 120.625 -8.363281 C 119.496094 -7.492188 118.378906 -6.621094 118.144531 -6.4375 C 117.917969 -6.242188 117.277344 -5.746094 116.730469 -5.332031 C 116.179688 -4.917969 115.511719 -4.398438 115.222656 -4.179688 C 114.695312 -3.769531 113.503906 -2.867188 111.847656 -1.625 C 111.316406 -1.234375 110.382812 -0.539062 109.773438 -0.0703125 C 108.683594 0.75 108.273438 0.945312 109.097656 0.242188 C 110.71875 -1.105469 110.609375 -1.070312 108.332031 0.546875 C 103.136719 4.226562 93.777344 11.363281 88.15625 15.929688 C 86.875 16.964844 85.085938 18.410156 84.191406 19.128906 C 83.289062 19.847656 81.546875 21.273438 80.3125 22.273438 C 79.082031 23.289062 77.074219 24.90625 75.847656 25.882812 C 74.617188 26.855469 72.328125 28.707031 70.75 29.980469 C 67.96875 32.226562 64.832031 34.714844 61.015625 37.683594 C 60.003906 38.460938 59.167969 39.144531 59.160156 39.183594 C 59.152344 39.261719 61.449219 37.753906 61.953125 37.363281 C 62.089844 37.242188 62.234375 37.191406 62.265625 37.234375 C 62.292969 37.273438 62.242188 37.34375 62.160156 37.402344 C 62.023438 37.480469 60.496094 38.652344 59.296875 39.59375 C 59.011719 39.8125 58.167969 40.453125 57.421875 41 C 56.667969 41.550781 55.695312 42.265625 55.261719 42.601562 C 54.820312 42.925781 53.605469 43.816406 52.566406 44.566406 C 51.523438 45.316406 50.457031 46.105469 50.199219 46.308594 C 49.9375 46.511719 48.578125 47.5 47.175781 48.5 C 45.769531 49.496094 44.167969 50.640625 43.617188 51.054688 C 43.066406 51.46875 40.890625 53.007812 38.785156 54.484375 C 36.671875 55.964844 34.507812 57.507812 33.953125 57.910156 C 28.914062 61.617188 -7.71875 86.75 -12.996094 90.128906 C -14.867188 91.324219 -17.570312 93.050781 -19 93.953125 C -22.144531 95.96875 -25.980469 98.496094 -25.773438 98.429688 C -25.6875 98.394531 -24.992188 98.019531 -24.238281 97.585938 L -22.847656 96.796875 L -24.070312 97.65625 C -24.742188 98.136719 -25.335938 98.605469 -25.398438 98.710938 C -25.492188 98.859375 -25.460938 98.863281 -25.265625 98.695312 C -25.128906 98.574219 -24.992188 98.507812 -24.964844 98.546875 C -24.941406 98.582031 -25.152344 98.773438 -25.4375 98.96875 C -25.757812 99.191406 -25.925781 99.257812 -25.882812 99.167969 C -25.851562 99.070312 -25.949219 99.121094 -26.152344 99.300781 C -26.664062 99.75 -32.984375 103.277344 -35.492188 104.511719 C -35.851562 104.699219 -36.023438 104.828125 -36.074219 104.96875 C -36.113281 105.085938 -36.269531 105.226562 -36.449219 105.316406 C -36.652344 105.40625 -36.742188 105.492188 -36.695312 105.554688 C -36.660156 105.605469 -36.550781 105.59375 -36.445312 105.519531 C -36.335938 105.449219 -36.140625 105.398438 -36.003906 105.402344 C -35.769531 105.414062 -35.761719 105.421875 -35.917969 105.601562 C -36.113281 105.847656 -36.027344 105.933594 -35.714844 105.808594 C -32.433594 104.46875 -19.648438 97.363281 -5.664062 89.121094 C -4.207031 88.257812 -2.046875 87.003906 -0.875 86.335938 C 0.296875 85.667969 2.085938 84.636719 3.101562 84.039062 C 4.121094 83.453125 5.644531 82.574219 6.476562 82.101562 C 7.3125 81.625 8.960938 80.671875 10.144531 79.960938 C 11.3125 79.257812 13.460938 77.988281 14.902344 77.136719 C 21.601562 73.175781 24.277344 71.5 32.152344 66.386719 C 33.507812 65.507812 34.71875 64.726562 34.851562 64.652344 C 34.984375 64.570312 35.796875 64.027344 36.667969 63.445312 C 37.617188 62.804688 38.242188 62.441406 38.242188 62.5 C 38.25 62.570312 38.324219 62.570312 38.390625 62.511719 C 39.035156 62.058594 40.0625 61.429688 40.585938 61.167969 C 41.371094 60.789062 51.730469 53.75 58.621094 48.925781 Z M 65.839844 38.96875 C 65.847656 38.910156 66.371094 38.476562 67.011719 38.003906 C 67.644531 37.519531 68.300781 37.011719 68.46875 36.871094 C 68.640625 36.730469 69.273438 36.234375 69.890625 35.777344 C 70.507812 35.320312 71.175781 34.800781 71.394531 34.625 C 71.601562 34.449219 72.136719 34.035156 72.570312 33.699219 C 73.003906 33.367188 73.484375 32.988281 73.621094 32.855469 C 73.769531 32.734375 74.273438 32.324219 74.757812 31.960938 C 75.226562 31.585938 75.722656 31.199219 75.847656 31.089844 C 75.96875 30.980469 76.414062 30.625 76.820312 30.300781 C 77.542969 29.734375 77.957031 29.40625 79.007812 28.5625 C 79.292969 28.339844 79.832031 27.914062 80.222656 27.605469 C 81.214844 26.832031 82.042969 26.175781 82.449219 25.839844 C 82.847656 25.503906 84.441406 24.21875 85.398438 23.453125 C 85.769531 23.160156 86.21875 22.796875 86.414062 22.636719 C 86.605469 22.480469 87.054688 22.113281 87.425781 21.824219 C 87.792969 21.53125 88.285156 21.144531 88.515625 20.953125 C 88.75 20.769531 89.222656 20.382812 89.570312 20.113281 C 90.4375 19.421875 90.980469 18.984375 92.683594 17.613281 C 94.613281 16.058594 97.300781 13.941406 98.394531 13.09375 C 98.871094 12.730469 99.550781 12.203125 99.898438 11.941406 C 100.246094 11.667969 100.773438 11.257812 101.078125 11.011719 C 102.542969 9.875 103.84375 8.910156 103.84375 8.972656 C 103.828125 9.058594 103.257812 9.546875 102.242188 10.339844 C 101.875 10.628906 101.453125 10.964844 101.3125 11.097656 C 101.167969 11.21875 100.75 11.566406 100.386719 11.851562 C 99.132812 12.847656 98.703125 13.191406 98.277344 13.539062 C 98.050781 13.730469 96.335938 15.085938 94.492188 16.558594 C 92.640625 18.023438 90.449219 19.777344 89.617188 20.445312 C 85.320312 23.898438 79.8125 28.28125 75.28125 31.84375 C 74.972656 32.078125 74.359375 32.558594 73.902344 32.910156 C 73.441406 33.261719 72.457031 34.011719 71.726562 34.582031 C 70.011719 35.902344 69.085938 36.609375 67.644531 37.691406 C 67.003906 38.167969 66.484375 38.574219 66.484375 38.585938 C 66.460938 38.664062 65.816406 39.042969 65.839844 38.96875 Z M 24.277344 67.042969 C 19.199219 70.386719 17.523438 71.480469 11.386719 75.433594 C 4.234375 80.03125 1.589844 81.695312 0.488281 82.25 C 0.117188 82.445312 0.0742188 82.449219 0.207031 82.273438 C 0.296875 82.164062 0.320312 82.109375 0.257812 82.140625 C 0.203125 82.164062 0.125 82.15625 0.0976562 82.117188 C 0.0273438 82.015625 -0.136719 82.128906 27.617188 63.105469 C 39.023438 55.289062 48.957031 48.445312 49.707031 47.882812 C 50.8125 47.066406 57.511719 42.417969 58.121094 42.039062 C 58.4375 41.847656 58.257812 42.132812 57.875 42.417969 C 56.445312 43.503906 55.472656 44.230469 54.109375 45.238281 C 53.25 45.863281 52.433594 46.46875 52.3125 46.578125 C 52.1875 46.691406 51.785156 46.988281 51.414062 47.242188 C 50.851562 47.636719 50.769531 47.722656 50.875 47.804688 C 50.964844 47.867188 50.960938 47.933594 50.871094 47.992188 C 50.78125 48.054688 50.71875 48.039062 50.695312 47.929688 C 50.65625 47.808594 50.566406 47.832031 50.214844 48.074219 C 49.828125 48.339844 49.777344 48.410156 49.84375 48.609375 L 49.914062 48.832031 L 49.710938 48.664062 L 49.511719 48.496094 L 49.59375 48.71875 C 49.660156 48.90625 49.625 48.976562 49.34375 49.148438 C 49 49.371094 46.308594 51.320312 45.054688 52.277344 C 44.640625 52.585938 43.058594 53.730469 41.546875 54.8125 C 40.03125 55.898438 38.648438 56.894531 38.476562 57.027344 C 38.300781 57.15625 37.300781 57.867188 36.253906 58.59375 C 35.152344 59.347656 34.375 59.9375 34.40625 59.980469 C 34.4375 60.03125 36.1875 58.882812 38.757812 57.136719 C 41.113281 55.527344 43.078125 54.21875 43.117188 54.21875 C 43.234375 54.25 28.738281 64.113281 24.277344 67.042969 Z M 50.230469 48.382812 C 50.214844 48.355469 50.21875 48.292969 50.25 48.234375 C 50.273438 48.179688 50.324219 48.167969 50.355469 48.210938 C 50.390625 48.261719 50.375 48.332031 50.335938 48.359375 C 50.289062 48.390625 50.242188 48.398438 50.230469 48.382812 Z M 70.148438 34.351562 C 70.191406 34.296875 70.308594 34.21875 70.394531 34.183594 C 70.492188 34.152344 70.457031 34.203125 70.324219 34.292969 C 70.183594 34.386719 70.117188 34.410156 70.148438 34.351562 Z M 71.707031 33.175781 C 71.710938 33.132812 71.78125 33.074219 71.855469 33.0625 C 71.9375 33.039062 71.933594 33.082031 71.839844 33.144531 C 71.757812 33.214844 71.6875 33.222656 71.707031 33.175781 Z M -0.230469 82.339844 C -0.261719 82.296875 -0.257812 82.234375 -0.214844 82.207031 C -0.167969 82.171875 -0.078125 82.175781 -0.0273438 82.199219 C 0.03125 82.234375 0.0195312 82.289062 -0.0429688 82.332031 C -0.117188 82.386719 -0.199219 82.390625 -0.230469 82.339844 Z M 72.539062 32.472656 C 72.609375 32.398438 72.742188 32.308594 72.824219 32.277344 C 72.925781 32.242188 72.871094 32.304688 72.714844 32.410156 C 72.558594 32.519531 72.484375 32.546875 72.539062 32.472656 Z M 73.671875 31.574219 C 73.769531 31.480469 73.949219 31.359375 74.082031 31.292969 C 74.226562 31.21875 74.148438 31.296875 73.925781 31.449219 C 73.695312 31.605469 73.585938 31.65625 73.671875 31.574219 Z M 58.398438 41.828125 C 58.433594 41.644531 58.597656 41.652344 58.597656 41.835938 C 58.609375 41.902344 58.550781 41.964844 58.488281 41.972656 C 58.414062 41.972656 58.378906 41.921875 58.398438 41.828125 Z M 74.847656 30.648438 C 74.945312 30.554688 75.125 30.433594 75.261719 30.367188 C 75.402344 30.292969 75.320312 30.371094 75.101562 30.519531 C 74.871094 30.679688 74.761719 30.730469 74.847656 30.648438 Z M -13.96875 91.40625 C -13.921875 91.351562 -13.820312 91.28125 -13.761719 91.265625 C -13.6875 91.25 -13.714844 91.296875 -13.832031 91.375 C -13.949219 91.453125 -14 91.464844 -13.96875 91.40625 Z M -21.773438 96.746094 C -21.726562 96.691406 -21.628906 96.625 -21.566406 96.605469 C -21.492188 96.589844 -21.523438 96.636719 -21.636719 96.714844 C -21.753906 96.792969 -21.804688 96.804688 -21.773438 96.746094 Z M 76.066406 29.691406 C 76.1875 29.585938 76.382812 29.449219 76.515625 29.382812 C 76.660156 29.308594 76.5625 29.398438 76.316406 29.570312 C 76.070312 29.734375 75.953125 29.792969 76.066406 29.691406 Z M -15.996094 92.671875 C -15.859375 92.554688 -15.613281 92.382812 -15.460938 92.304688 C -15.304688 92.222656 -15.40625 92.316406 -15.703125 92.519531 C -16 92.722656 -16.125 92.78125 -15.996094 92.671875 Z M -23.226562 97.617188 C -23.132812 97.527344 -22.949219 97.40625 -22.816406 97.335938 C -22.671875 97.261719 -22.75 97.339844 -22.972656 97.492188 C -23.203125 97.652344 -23.3125 97.703125 -23.226562 97.617188 Z M 77.445312 28.625 C 77.492188 28.570312 77.589844 28.503906 77.652344 28.484375 C 77.726562 28.46875 77.695312 28.515625 77.582031 28.59375 C 77.464844 28.671875 77.414062 28.683594 77.445312 28.625 Z M 77.089844 28.878906 C 77.097656 28.839844 77.164062 28.78125 77.242188 28.765625 C 77.324219 28.746094 77.316406 28.785156 77.226562 28.847656 C 77.140625 28.917969 77.074219 28.925781 77.089844 28.878906 Z M -17.574219 93.628906 C -17.460938 93.527344 -17.242188 93.375 -17.078125 93.289062 C -16.921875 93.207031 -17.007812 93.289062 -17.277344 93.476562 C -17.550781 93.660156 -17.6875 93.730469 -17.574219 93.628906 Z M -24.433594 98.320312 C -24.339844 98.230469 -24.15625 98.109375 -24.023438 98.042969 C -23.878906 97.96875 -23.957031 98.042969 -24.179688 98.195312 C -24.414062 98.355469 -24.519531 98.40625 -24.433594 98.320312 Z M -19.152344 94.585938 C -19.054688 94.492188 -18.875 94.371094 -18.742188 94.304688 C -18.597656 94.230469 -18.675781 94.308594 -18.898438 94.460938 C -19.128906 94.617188 -19.238281 94.667969 -19.152344 94.585938 Z M -20.523438 95.398438 C -20.429688 95.3125 -20.265625 95.195312 -20.152344 95.148438 C -20.035156 95.089844 -20.105469 95.164062 -20.3125 95.304688 C -20.515625 95.445312 -20.609375 95.484375 -20.523438 95.398438 Z M -22.058594 96.328125 C -21.964844 96.238281 -21.78125 96.113281 -21.648438 96.046875 C -21.503906 95.972656 -21.582031 96.050781 -21.804688 96.203125 C -22.035156 96.363281 -22.144531 96.414062 -22.058594 96.328125 Z M 104.152344 8.726562 C 104.117188 8.675781 104.289062 8.519531 104.535156 8.363281 L 104.976562 8.078125 L 104.644531 8.386719 C 104.464844 8.558594 104.296875 8.726562 104.253906 8.75 C 104.230469 8.785156 104.1875 8.773438 104.152344 8.726562 Z M 103.941406 8.945312 C 103.925781 8.917969 103.925781 8.855469 103.960938 8.796875 C 103.984375 8.742188 104.035156 8.730469 104.066406 8.773438 C 104.101562 8.820312 104.085938 8.890625 104.042969 8.921875 C 103.996094 8.953125 103.949219 8.960938 103.941406 8.945312 Z M 105.035156 8.074219 C 105.015625 8.046875 105.019531 7.984375 105.050781 7.925781 C 105.074219 7.871094 105.128906 7.859375 105.15625 7.902344 C 105.191406 7.953125 105.179688 8.023438 105.140625 8.050781 C 105.089844 8.082031 105.046875 8.089844 105.035156 8.074219 Z M 62.417969 37.070312 C 62.488281 36.996094 62.617188 36.90625 62.703125 36.871094 C 62.804688 36.839844 62.746094 36.902344 62.59375 37.007812 C 62.4375 37.117188 62.359375 37.144531 62.417969 37.070312 Z M 114.042969 -0.320312 C 114.050781 -0.363281 114.121094 -0.421875 114.191406 -0.4375 C 114.273438 -0.453125 114.269531 -0.414062 114.179688 -0.351562 C 114.09375 -0.28125 114.027344 -0.273438 114.042969 -0.320312 Z M 113.714844 -0.0976562 C 113.722656 -0.136719 113.789062 -0.195312 113.863281 -0.210938 C 113.945312 -0.230469 113.941406 -0.1875 113.851562 -0.125 C 113.765625 -0.0546875 113.699219 -0.046875 113.714844 -0.0976562 Z M 114.882812 -1.03125 C 115.035156 -1.160156 115.300781 -1.339844 115.457031 -1.421875 C 115.609375 -1.503906 115.480469 -1.390625 115.167969 -1.175781 C 114.847656 -0.957031 114.722656 -0.894531 114.882812 -1.03125 Z M 117.132812 -2.800781 C 120.425781 -5.460938 124 -8.542969 124.03125 -8.746094 C 124.035156 -8.792969 123.613281 -8.511719 123.09375 -8.105469 C 122.570312 -7.707031 121.808594 -7.113281 121.390625 -6.804688 C 120.980469 -6.484375 120.441406 -6.058594 120.195312 -5.851562 C 119.839844 -5.558594 119.738281 -5.515625 119.671875 -5.617188 C 119.625 -5.683594 119.621094 -5.792969 119.652344 -5.851562 C 119.734375 -5.964844 118.96875 -5.394531 117.765625 -4.433594 C 117.425781 -4.152344 117.144531 -3.964844 117.15625 -4.003906 C 117.167969 -4.089844 120.71875 -6.992188 121.523438 -7.582031 C 121.738281 -7.742188 122.054688 -8.007812 122.207031 -8.171875 C 122.363281 -8.328125 122.824219 -8.730469 123.234375 -9.046875 C 124.101562 -9.738281 124.160156 -9.789062 124.992188 -10.53125 C 125.34375 -10.84375 126.054688 -11.429688 126.578125 -11.824219 C 127.105469 -12.222656 128.117188 -13 128.828125 -13.5625 C 129.976562 -14.476562 130.195312 -14.617188 130.859375 -14.875 C 131.417969 -15.097656 131.664062 -15.144531 131.859375 -15.058594 C 132.382812 -14.839844 132.171875 -14.597656 130.296875 -13.265625 C 129.539062 -12.71875 128.179688 -11.65625 127.269531 -10.902344 C 125.875 -9.738281 120.996094 -5.777344 117.8125 -3.21875 C 117.324219 -2.820312 116.683594 -2.335938 116.386719 -2.132812 C 116.089844 -1.925781 116.425781 -2.230469 117.132812 -2.800781 Z M 131.664062 -13.292969 C 131.625 -13.351562 132.058594 -13.796875 132.335938 -13.984375 C 132.5 -14.085938 132.5 -14.085938 132.429688 -13.867188 C 132.363281 -13.648438 131.738281 -13.1875 131.664062 -13.292969 Z M 119.1875 -5.261719 C 119.160156 -5.300781 119.199219 -5.367188 119.265625 -5.414062 C 119.332031 -5.457031 119.414062 -5.511719 119.441406 -5.546875 C 119.476562 -5.570312 119.539062 -5.5625 119.582031 -5.53125 C 119.632812 -5.492188 119.570312 -5.410156 119.441406 -5.335938 C 119.324219 -5.257812 119.210938 -5.230469 119.1875 -5.261719 Z M 116.832031 -3.824219 C 116.839844 -3.863281 116.910156 -3.921875 116.984375 -3.9375 C 117.066406 -3.957031 117.058594 -3.914062 116.96875 -3.851562 C 116.886719 -3.78125 116.816406 -3.773438 116.832031 -3.824219 Z M 116.832031 -3.824219 " fill-opacity="1" fill-rule="nonzero"/></g></g></g><g clip-path="url(#5b9c3eeb08)"><g clip-path="url(#2548d1b9db)"><g clip-path="url(#adc8e197e1)"><path fill="#ffffff" d="M 34.316406 60.027344 C 34.292969 59.992188 34.222656 59.996094 34.15625 60.039062 C 34.089844 60.085938 34.039062 60.167969 34.035156 60.21875 C 34.042969 60.261719 34.117188 60.261719 34.207031 60.203125 C 34.289062 60.144531 34.339844 60.0625 34.316406 60.027344 Z M 34.316406 60.027344 " fill-opacity="1" fill-rule="nonzero"/></g></g></g></svg>